<svg xmlns="http://www.w3.org/2000/svg" width="132" height="25" fill="none"><path fill-rule="evenodd" clip-rule="evenodd" d="M71.562 23.217H88.56V21.1h-14.04v-6.694h10.547V12.22H74.519v-6.21h14.04V3.893H71.562v19.323zM80.426.82l-2.278 2.592L85.338.82h-4.912zM117.12 21.1V3.895h-2.693v19.323h17.201V21.1H117.12zM99.58 3.894l-9.678 19.33h3.289l2.49-4.984h11.557l2.489 4.985h3.229l-9.679-19.331h-3.696zM96.896 15.84l4.572-9.216 4.571 9.216h-9.143zM62.351 15.158C66.72 14 67.12 10.718 67.12 9.492c-.272-3.413-2.55-5.598-6.654-5.598h-11.95v19.33h2.686v-8.066h7.793l5.779 8.059h3.425s-4.165-5.46-5.847-8.059zm-2.278-2.323H51.2V6.21h9.204c2.082 0 3.289 1.027 3.696 2.254.34.89.136 2.047-.34 2.799-.731 1.303-2.21 1.572-3.688 1.572zM32.115.682c-7.725 0-12.968 5.467-12.968 12.153 0 7.031 5.778 12.023 12.968 12.023 7.121 0 12.9-4.915 12.9-12.023C45.023 6.15 39.712.682 32.115.682zm-.129 21.784c-5.31 0-9.739-4.37-9.739-9.63 0-5.192 4.232-9.77 9.943-9.77 5.643 0 9.74 4.578 9.74 9.77 0 5.26-4.572 9.63-9.944 9.63zM12.229 10.787h2.014l3.56-6.893h-2.889l-2.685 6.893zM2.618 21.1V3.895H0v19.323h17.132V21.1H2.618z" fill="#BEBEBE"></path></svg>