<svg xmlns="http://www.w3.org/2000/svg" width="120" height="61" fill="none"><path fill-rule="evenodd" clip-rule="evenodd" d="M61.192.396C60.486.403 59.78.24 59.101.098c-1.053-.238-2.146-.007-3.09.325-.74.143-1.534.15-2.193.496-.842.469-1.84.74-2.451 1.61-.469.563-1.08 1.011-1.195 1.738-.116.896.04 1.8.78 2.376.225.238.632.238.727.57-.095.632-.428 1.162-.625 1.753-.387.652.605 1.025.245 1.704l-1.379 2.445c-.17.36-.373.699-.373 1.127.163.679.978.42 1.392.828.292.38-.163.659-.183 1.012-.102.278.387.428.183.7-.265.448.217.767.346 1.14.041.543-.298 1.154.13 1.589 1.065.76 2.702.163 3.83.727.57.407.44 1.208.44 1.82-.312 2.668-1.609 4.963-3.259 7.055-.17.258-.326.604-.197.896.245.122.59.075.842-.014 3.042-1.025 5.412-3.667 8.366-4.91 1.147-.55 2.438-.74 3.7-1.024.3-.238.136-.666.062-.985-.618-1.61-1.324-3.246-1.209-5.106.02-.673.774-.842 1.236-1.08.787-.217 1.297-1.025 1.636-1.711.652-.883 1.46-1.732 1.555-2.859.041-1.005-.02-2.091.326-2.988.265-.97.109-2.084-.21-2.974-.095-1.215-.476-2.315-1.284-3.239-.753-1.012-1.969-1.168-2.885-1.908C63.5.444 62.334.37 61.192.396zM2.313 57.041v1.453c0 .76 0 1.413-.04 1.759-.034.237-.075.42-.238.455-.075.013-.176.034-.299.034-.095 0-.129.02-.129.068 0 .054.061.081.163.081.333 0 .849-.027 1.04-.027.216 0 .733.027 1.276.027.095 0 .156-.027.156-.081 0-.041-.04-.068-.13-.068-.121 0-.305-.014-.42-.034-.245-.034-.292-.218-.32-.448-.04-.353-.04-1.005-.04-1.766v-3.3c0-.095.027-.143.068-.156.068-.02.197-.034.32-.034.19 0 .522.047.82.32.462.413.49.963.49 1.235 0 .842-.645 1.358-1.107 1.358-.177 0-.231.027-.231.095 0 .054.061.061.095.075.04.006.136.006.177.006 1.174 0 2.03-.821 2.03-1.996 0-.434-.231-.808-.414-.984-.13-.123-.503-.469-1.528-.469-.38 0-.856.027-1.195.027-.231 0-.754-.027-1.189-.027-.129 0-.183.014-.183.075 0 .06.048.074.143.074.115 0 .258.007.319.02.271.055.34.19.36.47.006.27.006.502.006 1.758zM12.037 57.041c0-1.256 0-1.487-.013-1.752-.014-.278-.082-.414-.36-.468a1.986 1.986 0 0 0-.32-.02c-.088 0-.142-.021-.142-.075 0-.062.054-.075.177-.075.434 0 .957.027 1.134.027.278 0 .903-.027 1.16-.027.524 0 1.074.047 1.522.353.23.156.556.577.556 1.127 0 .611-.258 1.175-1.086 1.847.733.924 1.297 1.657 1.793 2.166.462.482.794.537.923.564.088.013.163.02.231.02s.102.02.102.068c0 .061-.061.082-.156.082h-.781c-.462 0-.672-.041-.883-.157-.353-.19-.665-.577-1.127-1.215-.333-.455-.713-1.012-.815-1.134a.186.186 0 0 0-.15-.061l-.72-.02c-.04 0-.06.02-.06.067v.116c0 .767 0 1.419.04 1.765.02.238.075.421.32.455.122.014.305.034.4.034.068 0 .095.02.095.068 0 .054-.054.082-.163.082-.475 0-1.093-.028-1.215-.028-.156 0-.68.028-1.005.028-.109 0-.17-.028-.17-.082 0-.04.034-.068.136-.068.122 0 .224-.013.292-.034.17-.034.21-.217.238-.455.04-.346.04-.998.04-1.758v-1.44h.007zm.971.652c0 .088.02.122.075.15.176.06.42.08.625.08.326 0 .434-.033.584-.142.244-.183.489-.557.489-1.236 0-1.168-.781-1.507-1.264-1.507-.203 0-.353.007-.434.034-.054.014-.075.047-.075.115v2.506zM21.537 57.76c0-1.412.937-3.232 3.409-3.232 2.05 0 3.334 1.195 3.334 3.083C28.28 59.5 26.956 61 24.864 61c-2.37 0-3.327-1.773-3.327-3.24zm5.588.157c0-1.847-1.059-2.995-2.41-2.995-.95 0-2.03.53-2.03 2.58 0 1.718.95 3.076 2.532 3.076.57.007 1.908-.278 1.908-2.661zM35.369 58.494v-.672c0-.054.02-.068.06-.068.143 0 1.013 0 1.216.027.258.034.38.184.428.3a.874.874 0 0 1 .048.257c0 .061.013.116.06.116.082 0 .082-.089.082-.157 0-.054.014-.434.034-.604.02-.251.068-.462.068-.51 0-.047-.013-.074-.047-.074-.048 0-.068.034-.109.082-.082.108-.197.142-.353.149-.116.014-.231.013-.374.013l-1.052.007c-.048 0-.061-.027-.061-.074V55.22c0-.088.02-.115.075-.115l1.27.027c.312.014.488.136.543.251.054.116.054.245.054.313.007.088.027.129.081.129.061 0 .075-.048.082-.116.02-.102.034-.584.04-.665.028-.217.069-.313.069-.374 0-.04-.02-.074-.062-.074-.04 0-.081.034-.129.047-.081.027-.183.027-.34.034-.19.014-1.86.014-2.172.014-.238 0-.76-.027-1.188-.027-.123 0-.197.013-.197.081 0 .048.06.068.142.068.116 0 .252.007.32.02.271.055.332.19.352.469.014.258.014.489.014 1.752v1.453c0 .794 0 1.412-.04 1.759-.035.237-.075.42-.238.454-.075.014-.177.035-.3.035-.094 0-.121.02-.121.067 0 .062.06.082.176.082.313 0 .836-.027 1.046-.027.217 0 .733.027 1.256.027.122 0 .184-.027.184-.082 0-.04-.034-.068-.136-.068-.116 0-.3-.013-.414-.034-.245-.033-.3-.217-.32-.454-.047-.367-.047-.985-.047-1.773zM43.687 57.041v1.453c0 .76 0 1.413-.04 1.76-.035.237-.075.42-.238.454-.075.014-.177.034-.3.034-.094 0-.128.02-.128.068 0 .054.06.081.17.081.332 0 .848-.027 1.038-.027.49 0 1.04.048 2.282.048.32 0 .387 0 .448-.21.04-.164.109-.727.109-.917 0-.082 0-.15-.068-.15-.054 0-.075.034-.088.122-.062.34-.157.51-.374.611-.217.102-.557.102-.774.102-.842 0-.978-.122-.991-.692-.007-.238 0-.998 0-1.277v-.652c0-.047.007-.081.054-.081.197 0 1.012.007 1.175.027.298.034.414.156.461.326.028.109.028.217.035.299 0 .04.013.074.074.074.075 0 .075-.088.075-.156 0-.06.02-.387.034-.557.027-.42.068-.55.068-.597 0-.054-.02-.068-.061-.068-.041 0-.075.04-.13.109-.074.081-.196.108-.393.122-.19.02-1.134.02-1.318.02-.054 0-.06-.034-.06-.088v-2.092c0-.06.013-.081.06-.081.163 0 1.032.014 1.175.034.408.047.496.15.55.299a.86.86 0 0 1 .048.292c0 .074.013.115.074.115s.075-.047.089-.088c.013-.102.034-.462.04-.543.028-.38.061-.483.061-.537 0-.04-.006-.075-.047-.075a.4.4 0 0 0-.129.035 3.513 3.513 0 0 1-.353.047c-.156.014-1.8.014-2.064.014-.224 0-.747-.028-1.182-.028-.122 0-.183.014-.183.075s.047.075.142.075c.116 0 .258.007.32.02.271.054.339.19.353.469-.014.244-.014.475-.014 1.731zM52.759 60.783c.353.156.726.217 1.209.217.434 0 .896-.075 1.31-.34.59-.386.774-.957.774-1.432 0-.781-.36-1.338-1.351-2.105l-.231-.17c-.686-.523-.87-.815-.87-1.188 0-.49.374-.842.979-.842.536 0 .774.244.903.4.17.21.21.469.21.544 0 .101.027.149.089.149.067 0 .088-.068.088-.251 0-.645.034-.883.034-.992 0-.054-.041-.081-.116-.095a3.88 3.88 0 0 0-1.1-.142c-1.147 0-1.908.651-1.908 1.561 0 .666.313 1.25 1.222 1.956l.38.299c.687.523.809.917.809 1.317 0 .435-.36.944-1.107.944-.516 0-.998-.224-1.182-.835a1.733 1.733 0 0 1-.074-.414c0-.068-.007-.143-.088-.143-.062 0-.089.088-.096.217-.006.13-.04.625-.04 1.08 0 .17.027.21.156.265zM61.878 60.783c.353.156.727.217 1.209.217.434 0 .896-.075 1.31-.34a1.66 1.66 0 0 0 .781-1.432c0-.781-.366-1.338-1.35-2.105l-.232-.17c-.679-.523-.876-.815-.876-1.188 0-.49.374-.842.985-.842.536 0 .774.244.896.4.17.21.218.469.218.544 0 .101.02.149.08.149.069 0 .096-.068.096-.251 0-.645.034-.883.034-.992 0-.054-.04-.081-.115-.095a3.783 3.783 0 0 0-1.094-.142c-1.154 0-1.908.651-1.908 1.561 0 .666.313 1.25 1.223 1.956l.38.299c.679.523.808.917.808 1.317 0 .435-.36.944-1.107.944-.51 0-.998-.224-1.182-.835a1.692 1.692 0 0 1-.067-.414c0-.068-.007-.143-.082-.143-.068 0-.088.088-.102.217-.007.13-.04.625-.04 1.08-.014.17.006.21.135.265zM71.453 57.041v1.453c0 .801 0 1.447-.041 1.8-.027.237-.075.38-.238.414-.075.013-.176.034-.299.034-.095 0-.129.02-.129.068 0 .054.062.081.163.081.333 0 .85-.027 1.04-.027.223 0 .746.027 1.29.027.094 0 .156-.027.156-.081 0-.041-.041-.068-.13-.068-.122 0-.305-.014-.42-.034-.252-.034-.306-.183-.333-.408-.034-.353-.034-1.005-.034-1.806v-1.453c0-1.256 0-1.487.013-1.752.02-.292.082-.428.306-.468.102-.014.17-.02.251-.02.075 0 .13-.021.13-.09 0-.047-.062-.067-.177-.067-.313 0-.802.027-1.005.027-.238 0-.76-.027-1.073-.027-.136 0-.204.014-.204.068 0 .068.055.088.136.088.095 0 .204.007.299.034.176.04.265.183.278.462.02.258.02.489.02 1.745zM78.426 57.76c0-1.412.93-3.232 3.409-3.232 2.05 0 3.334 1.195 3.334 3.083 0 1.888-1.317 3.389-3.415 3.389-2.377 0-3.328-1.773-3.328-3.24zm5.582.157c0-1.847-1.066-2.995-2.417-2.995-.944 0-2.03.53-2.03 2.58 0 1.718.95 3.076 2.532 3.076.577.007 1.915-.278 1.915-2.661zM91.715 59.757l-.095-3.463h.027c.15.156 1.06 1.189 1.962 2.085.856.849 1.915 1.928 2.431 2.424.089.088.19.183.285.183.068 0 .11-.074.11-.258l.087-5.208c.007-.462.075-.638.306-.7.102-.02.163-.02.251-.02.095 0 .15-.027.15-.074 0-.068-.082-.075-.19-.075-.408 0-.72.027-.808.027-.17 0-.564-.027-.992-.027-.129 0-.217.007-.217.075 0 .047.034.074.129.074.115 0 .312 0 .441.048.197.081.272.244.279.74l.081 3.707h-.04c-.143-.129-1.257-1.324-1.82-1.88a121.264 121.264 0 0 1-2.554-2.649c-.142-.15-.217-.258-.305-.258-.082 0-.109.116-.109.285l-.075 4.883c-.006.72-.04.957-.258 1.025-.115.034-.264.04-.373.04-.082 0-.13.014-.13.069 0 .074.069.081.178.081.427 0 .814-.027.889-.027.156 0 .489.027 1.019.027.115 0 .19-.013.19-.081 0-.055-.048-.068-.143-.068a1.21 1.21 0 0 1-.428-.061c-.156-.061-.264-.272-.278-.924zM103.713 58.732c-.04 0-.061.02-.074.068l-.449 1.181a1.635 1.635 0 0 0-.122.503c0 .149.075.258.333.258h.122c.095 0 .122.013.122.068 0 .06-.047.081-.142.081-.265 0-.618-.027-.876-.027-.088 0-.543.027-.971.027-.109 0-.156-.014-.156-.081 0-.055.034-.068.095-.068.074 0 .19-.007.258-.014.38-.047.536-.333.699-.74l2.071-5.181c.095-.245.15-.333.231-.333.075 0 .122.075.204.265.197.455 1.514 3.816 2.044 5.072.312.74.55.856.726.897.123.027.252.034.347.034.067 0 .108.006.108.068 0 .06-.074.081-.38.081-.299 0-.903 0-1.562-.014-.149-.006-.244-.006-.244-.06 0-.055.034-.069.115-.075.054-.014.116-.089.075-.19l-.659-1.752c-.013-.041-.041-.055-.081-.055h-1.834v-.013zm1.684-.415c.041 0 .048-.027.041-.047l-.747-2.037c-.007-.034-.013-.075-.041-.075-.027 0-.04.04-.047.075l-.761 2.03c-.006.034 0 .061.034.061h1.521v-.007zM114.408 58.494v-1.453c0-1.256 0-1.487.02-1.752.014-.292.082-.428.306-.468.102-.014.231-.02.319-.02.102 0 .15-.021.15-.075 0-.062-.062-.075-.17-.075-.319 0-.924.027-1.127.027-.224 0-.741-.027-1.128-.027-.122 0-.183.013-.183.075 0 .06.048.074.143.074.108 0 .203.007.271.02.272.055.333.19.353.47.014.257.014.488.014 1.751v1.453c0 .76 0 1.413-.041 1.759-.034.238-.074.42-.237.455-.075.013-.177.034-.299.034-.102 0-.136.02-.136.068 0 .054.061.081.17.081.332 0 .849-.027 1.039-.027.665 0 1.208.048 2.403.048.428 0 .469-.041.523-.224.068-.238.123-.863.123-.951 0-.095-.007-.136-.068-.136-.068 0-.082.048-.089.122a.989.989 0 0 1-.217.496c-.21.224-.53.23-.971.23-.638 0-.856-.06-.998-.182-.17-.15-.17-.72-.17-1.773zM102.702 44.873v4.699l2.288.753v.605h-6.077v-.605l1.847-.753V35.848l-1.847-.631v-.55l3.789-.944v1.5c1.263-.746 2.661-1.276 3.313-1.276 2.309 0 4.074 2.302 4.074 5.324 0 3.755-3.327 5.812-6.016 5.806-.428-.014-.93-.055-1.371-.204zm0-.971c.461.054.787.075 1.201.075 2.594 0 4.122-1.06 4.122-4.034 0-2.736-1.399-4.55-3.49-4.55-.699 0-1.331.123-1.833.36v8.149zM114.564 35.176h3.158v-1.073h-3.158v-1.758c0-1.29.279-2.105.869-2.6.469-.408 1.25-.694 1.929-.694.061 0 .17.02.292.02l.597 1.46h1.372v-2.03c-.55-.237-1.283-.36-2.159-.36-2.9 0-4.787 1.8-4.787 4.57v1.4h-1.8v1.072h1.8v8.427l-1.8.842v.598h5.901v-.598l-2.221-.842v-8.434h.007zM.283 44.437l.238.068 1.304.313c.998.244 2.07.387 2.818.387 3 0 4.957-1.732 4.957-4.434 0-.924-.231-1.773-.7-2.458-.42-.686-.625-.829-2.118-1.827l-2.445-1.63c-1.63-1.073-1.983-1.555-1.983-2.675 0-1.61 1.12-2.363 3.45-2.363.414 0 .557.02 1.16.075l.191.02 1.12 2.933h.863V29.39l-.347-.075-.957-.217c-.306-.075-.7-.15-1.236-.224-.652-.075-1.351-.143-1.745-.143-2.655 0-4.448 1.732-4.448 4.285 0 .808.143 1.44.537 2.071.414.727.842 1.12 2.05 1.922l2.282 1.534c1.63 1.094 2.003 1.65 2.003 2.846 0 1.704-1.14 2.607-3.307 2.607a9.92 9.92 0 0 1-1.704-.122l-1.14-3.015H.282v3.578zM19.154 34.327c-1.006-.346-1.8-.51-2.594-.51-3.375 0-5.636 2.418-5.636 6.024 0 3.184 1.82 5.439 4.42 5.439.774 0 1.63-.163 2.594-.489l1.066-.353.21-.068-.122-.747-.21.048c-1.114.21-1.385.23-2.05.23-1.366 0-2.221-.373-2.934-1.283-.652-.815-1.005-1.996-1.005-3.3 0-2.696 1.568-4.699 3.626-4.699.122 0 .224 0 .434.02l.917 2.065h1.277v-2.377h.007zM20.28 45.036h5.148v-.618l-1.555-.876v-7.897c.434-.15 1.283-.252 1.901-.252 1.78 0 2.52.85 2.52 2.839v5.31l-1.637.876v.618h5.228v-.618l-1.738-.876v-5.888c0-2.363-1.12-3.877-2.872-3.877-.706 0-1.61.346-3.137 1.168l-.272.122V27.51l-3.694.998v.55l1.86.645v13.839l-1.751.876v.618zM39.654 37.499l2.43 7.537h.958l3.68-9.642 1.256-.74v-.557h-4.237v.556l1.582.74-2.26 6.906-.062-.203c-.17-.652-.217-.808-.36-1.236l-2.24-6.77h-.639L36.85 42.3l-.068-.34-.19-.625-.19-.631-1.793-5.426 1.616-.625v-.556H31.24v.556l1.338.625 3.45 9.758h.937l2.688-7.537zM48.895 36.772v-2.091c1.575-.53 2.682-.781 3.646-.781 2.051 0 3.043.896 3.043 2.716v6.098c0 .577.06.665.584.849l1.174.373v.482l-1.507.55c-.184.068-.584.136-.876.163h-.082c-.624 0-.984-.346-1.113-1.107l-.252.143-.712.366c-.503.252-.815.388-.944.435-.272.116-.625.163-1.026.163-1.697 0-2.872-1.148-2.872-2.784 0-1.378.774-2.282 2.22-2.621.836-.21 2.078-.394 3.518-.536v-2.486c0-1.426-.503-1.887-2.098-1.887-.224 0-.306 0-.564.04l-.883 1.908h-1.256v.007zm4.8 3.056c-.773.095-1.446.23-2.2.441-1.004.272-1.445.802-1.445 1.745 0 1.127.774 1.84 2.01 1.84a2.8 2.8 0 0 0 .794-.095c.061 0 .272-.047.672-.156.04 0 .082-.02.17-.047v-3.728zM58.191 45.009h5.813v-.578l-2.173-.814v-7.952c.502-.203 1.086-.346 1.568-.346.102 0 .292.027.523.027l.625 1.365h1.446v-2.547c-.36-.23-.672-.346-1.066-.346-.584 0-1.528.394-2.906 1.182l-.19.115v-1.46l-3.64.93v.53l1.759.55v7.952l-1.759.815v.577zM66.801 45.049h8.393v-3.416h-.666l-1.154 2.384H69.26l5.935-9.187v-.727h-7.965v3.09h.727L69 35.128h3.694l-5.894 9.16v.761zM76.328 45.137v-.577l1.786-.808V29.54l-1.888-.598v-.509l3.755-.923v16.242l1.786.808v.577h-5.439zm5.921-6.674l3.925 5.425 1.528.672v.577h-3.165l-4.244-5.975 3.586-3.904-1.385-.598v-.55h4.889v.55l-2.051.713-3.083 3.09zM87.92 39.712c0-3.585 2.159-6.01 5.377-6.01 3.063 0 5.133 2.262 5.133 5.596 0 3.49-2.274 6.03-5.445 6.03-2.974 0-5.066-2.309-5.066-5.616zm2.226-.346c0 3.096 1.168 4.923 3.124 4.923 1.847 0 2.927-1.644 2.927-4.462 0-3.211-1.148-5.085-3.13-5.085-1.841 0-2.92 1.69-2.92 4.624z" fill="#BEBEBE"></path></svg>