<svg xmlns="http://www.w3.org/2000/svg" width="172" height="19" fill="none"><path d="M42.036 11.326c-.663-1.197-1.537-1.7-1.537-1.7s.335-.547.488-1.145a4.19 4.19 0 0 0-.146-2.587A4.058 4.058 0 0 0 39.508 4.1a4.032 4.032 0 0 0-2.368-.85c-.918-.03-1.843.052-2.76-.06-.453-.058-.94-.265-1.254-.775-.175 1.079.211 1.818.211 1.818-.575-.421-1.66-.318-1.748-.318 0 .007.758.458.758 1.463 0 .008.036.599.036.783.007.791.058 8.639-.117 9.525-.13.68-.75 1.027-.75 1.027s.67.008.86-.014c.211-.023.655-.09.961-.303 0 0-.335.569-.218 1.84.379-.747 1.202-.806 1.537-.813 1.042-.008 1.974-.008 2.965-.015.444-.007.889-.015 1.333-.044.481-.03.918-.2 1.34-.429a3.932 3.932 0 0 0 1.276-1.057 4.225 4.225 0 0 0 .874-1.98c.073-.48.065-.968-.03-1.456-.08-.391-.189-.768-.378-1.115zm-7.344.443s2.616-.037 3.665-.037c.641 0 1.114.23 1.42.79.445.813.08 1.818-.743 2.195-.32.148-.655.14-.99.14-.998.008-2.346 0-3.344.008l-.008-3.096zm3.315-3.096a1.66 1.66 0 0 1-1.063.362h-2.04V5.79c.663.007 1.457 0 2.12.007.64.008 1.122.325 1.406.887a1.591 1.591 0 0 1-.423 1.988zM58.223 13.903a2.907 2.907 0 0 1-.517.532 1.965 1.965 0 0 1-1.085.303l-6.2-.007s-.015-8.646.007-10.412c.008-.532.146-1.02.547-1.389.087-.081.291-.266.291-.266-.24 0-.517-.015-.758.008-1.027.073-1.406 1.049-1.406 1.049-.415-1.027-1.275-1.02-1.602-1.057-.175-.022-.576 0-.576 0 .561.4.852.85.852 1.404 0 .613.008 9.917 0 10.966 0 .406-.072.798-.306 1.13-.138.192-.327.34-.502.51.32.015 1.26.06 1.821-.266 0 0-.175.444-.226.894-.058.473.008.946.015.983.065-.088.364-.48.648-.628.386-.207.816-.244 1.246-.244 1.93 0 5.544-.007 5.675-.007.313 0 .627-.008.94.044.306.052.612.17.838.414.109.118.21.244.335.384 0 0 .014-.384.014-.687 0-.938-1.1-1.5-1.1-1.5 1.399-.525 1.05-2.158 1.05-2.158zM97.228 3.227s-.306-.577-1.231-1.027c-.728-.355-1.836-.178-2.032-.074h.007c.524.11 1.442.414 1.74 1.278.081.318.117.658.103 1.013-.007.192-.007.399-.007.665 0 .746-.518 1.27-1.253 1.27h-2.623c-.394 0-.94.03-1.45.237-1.93.798-2.04 2.948-2.083 3.377-.088.99-.204 2.283-1.02 2.72.109.014.218.014.328.021 1.267.037 1.967-1.064 1.967-1.411 0 0 .276.71.735 1.042.488.347 1.166.325 1.18.325a1.693 1.693 0 0 1-.218-.192c-.43-.48-.597-1.278-.48-2.387.028-.584.378-.997.815-1.05.204-.021.43-.029.721-.021.561.014.947.406.962.975 0 0 .066.939-.03 1.855-.087.776-.313 1.507-.567 1.958-1.224 2.187-4 2.993-6.186 1.788a4.723 4.723 0 0 1-2.141-2.475 4.211 4.211 0 0 1-.277-1.449c.007-.687.233-1.322.626-1.788a2.35 2.35 0 0 1 1.13-.746c.604-.17 1.391-.148 1.391-.148l-.007-2.83s-1.348.103-1.654-.155c-.656-.554-.335-1.375-.182-1.545.415-.443.969-.384 1.399-.391.568-.015 1.427 0 1.639 0 .692.007 1.435.288 1.894.724.095.089.175.185.248.288-.015-.273-.059-.524-.073-.776-.08-1.175-1.435-1.677-1.435-1.677.713 0 1.478-1.227 1.471-1.7-.357.281-.903.4-1.275.466-.67.118-2.2.074-2.382.066-.772-.03-2.841.06-3.73 1.707-1.188 2.21.146 4.3.146 4.3s-.97 1.05-1.428 2.085c-.816 1.832-.43 3.532.065 4.655.875 1.98 3.271 4.788 7.067 4.544 3.22-.206 6.09-2.652 6.717-5.881.248-1.264.27-2.557.066-3.725a.669.669 0 0 1 .43-.79c.072-.03.16-.074.247-.126.612-.34 1.034-.901 1.391-1.825.212-.554.24-1.145.219-1.87 0-.08-.124-.96.262-1.544.38-.569 1.26-.828 1.567-.894-.255-.207-1.18-.207-1.8.074-.605.273-.947.93-.969 1.064zM26.635 15.663c-.233-.57-4.16-10.848-4.342-11.343a4.377 4.377 0 0 1-.218-.857c-.044-.428.364-.798.364-.798-.408.007-.78-.044-1.137.096-.393.155-.64.835-.662.88-.015-.052-.263-.725-.663-.88-.357-.14-.722-.089-1.137-.096 0 0 .4.377.364.798a4.512 4.512 0 0 1-.218.857c-.175.495-4.102 10.774-4.335 11.343-.502 1.227-1.282 1.574-1.515 1.744 0 0 1.216.052 1.595-.089.27-.096.685-.384 1.173-.953 0 0 .19 1.042 1.217 1.042.218 0 .801-.015.787 0 .007-.015-.438-.34-.481-.584a2.11 2.11 0 0 1 .058-.85c.131-.48.313-.946.48-1.411.14-.4.51-1.382.51-1.382h4.328s.372.99.51 1.382c.168.465.35.93.481 1.411.073.274.102.599.058.85-.043.244-.488.562-.48.584-.008-.015.575 0 .786 0 1.02 0 1.217-1.042 1.217-1.042.488.569.903.857 1.173.953.379.14 1.595.089 1.595.089-.233-.17-1.005-.517-1.508-1.744zm-7.227-5.158l1.232-3.11 1.23 3.11h-2.462zM137.828 15.663a2318.95 2318.95 0 0 1-4.342-11.343 4.43 4.43 0 0 1-.218-.857c-.044-.428.364-.798.364-.798-.408.007-.779-.044-1.136.096-.394.155-.642.835-.663.88-.015-.052-.263-.725-.663-.88-.357-.14-.722-.089-1.137-.096 0 0 .401.377.364.798-.021.214-.123.591-.218.857a2318.95 2318.95 0 0 1-4.342 11.343c-.503 1.227-1.282 1.574-1.515 1.744 0 0 1.216.052 1.595-.089.27-.096.685-.384 1.173-.953 0 0 .189 1.042 1.217 1.042.218 0 .801-.015.786 0 .008-.015-.437-.34-.48-.584a2.102 2.102 0 0 1 .058-.85c.131-.48.313-.946.481-1.411.138-.4.51-1.382.51-1.382h4.327s.372.99.51 1.382c.168.465.35.93.481 1.411.073.274.102.599.058.85-.044.244-.488.562-.481.584-.007-.015.576 0 .787 0 1.02 0 1.217-1.042 1.217-1.042.488.569.903.857 1.173.953.378.14 1.595.089 1.595.089-.219-.17-.998-.517-1.501-1.744zm-7.227-5.158l1.232-3.11 1.231 3.11h-2.463zM4.48 17.43c-.006-.008-.706-.503-.742-1.479v-4.197c.444 0 3.905-.022 4.597.03.473.037.881.244 1.143.59.051.067.197.274.197.274l.088.126v-.155-.096c0-.333.007-1.101-.437-1.589-.212-.236-.503-.384-.67-.458.757-.251 1.128-.924 1.107-2.017v-.2l-.088.103s-.146.185-.306.326c-.357.303-.736.45-1.165.45H3.738V5.872c.539 0 5.558-.014 6.185.03.364.022.728.214.969.51.036.044.065.081.095.125.036.045.072.096.123.156l.066.073.022-.096c.007-.03.146-.746-.102-1.3-.175-.392-.59-.687-.765-.806.131-.066.379-.214.583-.458.357-.428.35-1.034.35-1.234 0-.051-.015-.273-.015-.28l-.022-.156-.073.126c0 .007-.248.384-1.02.591-.357.096-.83.089-1.282.089-.11 0-3.7.007-5.223-.008a2.72 2.72 0 0 1-.94-.177c-.335-.133-.583-.362-.678-.636l-.065-.177-.022.192c-.037.274-.073.54-.051.813l.007.067c.03.37.124.672.182.835-.408-.222-.947-.31-1.61-.259H.248l.124.089c.007.007.583.406.67.96a8.9 8.9 0 0 1 .11 1.072v.007c.021.576.029 9.96-.139 10.441-.255.724-.656.968-.663.968l-.138.082.16.007c.036 0 .823.037 1.21-.133.393-.178.713-.614.823-.776.123.192.466.591.757.746.343.185.7.178 1.078.17H4.583l-.102-.096zM120.541 2.739c-.474-.022-1.45-.06-2.091.938-.073-.162-.255-.502-.598-.717-.466-.288-1.398-.25-1.435-.25l-.116.007.08.08c.014.016.32.304.422.385.212.177.241.333.11.569-.175.325-3.519 6.081-3.767 6.51-.233-.406-3.577-6.2-3.752-6.517-.131-.237-.102-.392.11-.57.094-.08.408-.369.422-.384l.08-.08-.116-.008c-.037 0-.969-.037-1.436.251-.342.214-.524.554-.597.717-.612-.983-1.792-.953-2.185-.939h-.11l.08.082c.008.007.481.45.576.635.146.288.219.62.226.99.014 1.774-.007 11.025-.066 11.83-.029.377-.277.762-.75 1.16l-.102.082h.969c.692 0 1.107-.62 1.238-.865.146.215.649.88 1.224.88.292 0 .896.007.896.007h.124l-.109-.096c-.233-.2-.78-.754-.809-1.581 0-.045-.044-1.035-.051-1.973-.007-.695.051-4.604.066-5.468.124.214 2.01 3.576 2.112 3.746.263.436.532.894.634 1.419.037.2.015.414 0 .561-.014.111-.051.215-.087.333-.022.059-.095.295-.095.295l.241-.125c.08-.045.152-.074.218-.126.576-.414.933-.99 1.049-1.374.095.325.35.93 1.042 1.382.065.044.138.08.218.118.044.022.241.133.241.133s-.073-.237-.095-.296a1.559 1.559 0 0 1-.087-.332c-.015-.148-.037-.362 0-.562.102-.524.371-.975.634-1.411.094-.163 1.988-3.517 2.112-3.74 0 1.102.008 7.168 0 7.442-.029.827-.583 1.382-.816 1.581l-.109.096h.124s.605-.007.896-.007c.575 0 1.078-.658 1.224-.88.138.244.546.872 1.238.872.139 0 .692.008.838.008h.131l-.102-.081c-.481-.4-.721-.776-.75-1.16a39.933 39.933 0 0 1-.102-2.454c-.007-.406.065-9.377.065-9.377 0-.37.081-.702.226-.99.095-.185.569-.628.583-.635l.08-.082c.008-.022-.167-.03-.196-.03zM156.092 2.739c-.466-.015-1.552-.06-1.982 1.027a2.051 2.051 0 0 0-.743-.806c-.466-.28-1.391-.25-1.435-.25l-.16.006.138.082c.007.007.838.502.838 1.234 0 .11.044 6.85.051 8.431-.51-.702-5.355-7.315-5.427-7.419-.248-.34-.569-.909-.736-1.22-.131-.243-.095-.48.109-.65.095-.08.408-.369.423-.384l.102-.096s-.197.015-.255.015c-.277 0-.918.007-1.312.251a1.6 1.6 0 0 0-.597.717c-.619-.983-1.792-.953-2.186-.938l-.153.007.124.081c.073.052.459.414.568.628.146.289.226.621.226.99.015 1.456.066 8.742.059 9.378a47.155 47.155 0 0 1-.11 2.453c-.029.377-.269.761-.75 1.16l-.102.081h.969c.692 0 1.1-.62 1.238-.872.146.215.649.88 1.224.88.292 0 .896.007.896.007h.124l-.109-.096c-.233-.2-.787-.754-.816-1.581 0 0-.044-1.027-.051-1.973 0-.31.065-5.461.065-5.734.226.295.897 1.175 2.171 2.83a2623.85 2623.85 0 0 1 4.124 5.387 2.33 2.33 0 0 1-.692.96l-.11.096s.729-.007 1.02-.007c.576 0 1.079-.658 1.224-.872.139.244.554.864 1.239.864.131 0 .969.008.969.008l-.102-.081c-.481-.4-.729-.776-.751-1.146a46.676 46.676 0 0 1-.109-2.43c-.007-.659.051-8.425.058-9.311 0-.37.08-.695.226-.983.095-.178.415-.48.539-.591l.124-.119-.16-.014zM73.143 18.101c.008-.34.03-.909-.21-1.315-.22-.37-.598-.62-.766-.724.204-.096.554-.303.772-.673.234-.391.197-.96.175-1.226l-.014-.207-.08.118c-.008.008-.51.739-1.472.739-.641 0-4.67.007-5.952.022l-.015-3.133c.321 0 4.809-.022 4.983.015.518.103.94.702.948.71l.072.103.008-.133c0-.03.05-.74-.037-1.05-.167-.576-.736-.879-.99-.99.21-.088.466-.251.59-.384.64-.672.407-1.663.4-1.7l-.029-.125-.058.11c-.008.008-.4.77-1.53.777l-4.378.022-.015-3.163c.371 0 5.639-.03 6.192 0 .452.03.824.244 1.246.732l.08.088V6.59c0-.037.015-.91-.16-1.286-.182-.392-.62-.68-.801-.79.094-.045.21-.112.444-.281.583-.414.51-1.456.466-1.781l-.014-.111-.073.081s-.248.288-.372.4c-.225.206-.524.31-.954.34-.51.036-4.983.058-5.15.058a18.867 18.867 0 0 1-1.676-.066c-.364-.052-.729-.303-1.064-.717l-.08-.096.03.14c-.052.983.087 1.47.189 1.692-.634-.295-1.61-.221-1.654-.221l-.139.007.102.074c.008.007.612.45.729 1.19.044.258.044.561.044.827 0 0 .029 7.833.036 8.025.015.576.022 1.168-.095 1.722-.116.54-.655.946-.655.953l-.102.074.123.007c.044 0 1.013.074 1.683-.251-.094.244-.27.842-.167 1.722l.014.125s.08-.118.088-.125c.058-.096.248-.392.575-.562.481-.251 1.13-.259 1.406-.266 0 0 5.624-.037 6.032.015.212.03.642.089 1.173.695l.08.088.022-.17zM171.442 18.101c.007-.34.029-.909-.212-1.315-.218-.37-.597-.62-.764-.724.204-.096.553-.303.772-.673.233-.391.196-.96.175-1.226l-.008-.222-.08.118c-.007.008-.51.74-1.471.74-.642 0-4.67.007-5.952.021l-.015-3.133c.321 0 4.808-.022 4.983.015.517.104.94.702.947.71l.073.103.007-.133c0-.03.051-.739-.036-1.05-.168-.576-.736-.879-.991-.99.211-.088.466-.25.59-.384.641-.672.408-1.662.401-1.7l-.029-.125-.059.111c-.007.007-.4.769-1.529.776l-4.379.022-.014-3.163c.371 0 5.638-.03 6.192 0 .452.03.823.244 1.246.732l.08.089v-.126c0-.037.014-.909-.16-1.286-.183-.391-.62-.68-.802-.79.095-.045.212-.111.445-.281.582-.414.51-1.456.466-1.781l-.015-.11-.073.08s-.247.289-.371.4c-.226.206-.525.31-.954.34-.51.036-4.983.059-5.151.059-.743.014-1.676-.067-1.676-.067-.364-.052-.728-.303-1.063-.717l-.08-.096-.008.126c-.051.983.088 1.47.19 1.692-.634-.296-1.61-.222-1.654-.222l-.131.008.102.074c.007.007.612.45.728 1.19.044.258.044.56.044.827 0 0 .029 7.832.037 8.025.014.576.021 1.167-.095 1.721-.117.54-.656.946-.656.954l-.102.074.124.007c.044 0 1.013.074 1.683-.251-.095.244-.27.842-.168 1.721l.015.126s.08-.118.087-.126c.059-.096.248-.391.576-.561.481-.252 1.129-.259 1.406-.266 0 0 5.624-.037 6.032.015.211.03.641.088 1.173.694l.08.089.044-.14z" fill="#BEBEBE"></path></svg>