<svg xmlns="http://www.w3.org/2000/svg" width="112" height="25" fill="none"><g clip-path="url(#clip0)"><path d="M14.908 18.404H6.332L4.1 23.554H.83l9.929-22.496 9.571 22.539h-3.31l-2.113-5.193zm-1.238-2.997L10.72 8.19l-3.111 7.217h6.061zM41.825 5.361h-8.016v5.107h7.777v2.998h-7.777v7.09h8.016v2.997H30.778V2.366h11.047v2.996zm18.702 9.16l6.182 9.032H63.04l-5.703-8.695h-.558v8.696h-3.031V2.366h3.55c2.631 0 4.546.506 5.742 1.561 1.316 1.182 1.954 2.701 1.954 4.643 0 1.52-.399 2.787-1.237 3.883-.797 1.098-1.874 1.774-3.23 2.069v-.001zm-3.748-2.406h.957c2.871 0 4.307-1.14 4.307-3.461 0-2.152-1.395-3.25-4.187-3.25h-1.077v6.71zm23.967-9.75v21.19h-3.03V2.364h3.03zm12.8 21.19V.93l14.596 16.166V2.365h3.031v22.497L96.537 8.738v14.858h-2.991v-.043.001z" fill="#BEBEBE"></path></g><defs><clipPath id="clip0"><path fill="#fff" transform="translate(.83 .93)" d="M0 0h110.687v23.932H0z"></path></clipPath></defs></svg>