<svg xmlns="http://www.w3.org/2000/svg" width="182" height="17" viewBox="0 0 182 17" fill="none"><path d="M55.0533 0C53.0459 0 51.3107 0.774466 50.0782 2.17203C48.8464 3.56884 48.1218 5.58217 48.1218 8.05295C48.1218 10.5237 48.8464 12.5371 50.0782 13.9339C51.3107 15.3314 53.0459 16.1059 55.0533 16.1059C58.2107 16.1059 60.7938 14.2022 61.3774 10.9771L61.3948 10.8808H59.3514L59.3377 10.9457C58.8927 13.0519 57.0843 14.1844 55.0533 14.1844C53.6663 14.1844 52.4316 13.6481 51.5427 12.6178C50.653 11.5866 50.1039 10.0539 50.1039 8.05295C50.1039 6.05204 50.653 4.51931 51.5427 3.48813C52.4316 2.45782 53.6663 1.92151 55.0533 1.92151C57.0843 1.92151 58.8927 3.054 59.3377 5.16024L59.3514 5.22514H61.3948L61.3774 5.12876C60.7938 1.90366 58.2107 0 55.0533 0Z" fill="white"></path><path d="M2.04275 0.212159H0V15.8937H9.25617V14.0631H2.04275V0.212159Z" fill="white"></path><path d="M24.5001 0.212159H22.4574V10.5686C22.4574 12.181 23.0606 13.5822 24.1295 14.5798C25.1981 15.5772 26.7269 16.1665 28.5706 16.1665C30.4143 16.1665 31.9431 15.5772 33.0117 14.5798C34.0806 13.5822 34.6838 12.181 34.6838 10.5686V0.212159H32.6411V10.417C32.6411 11.5344 32.2578 12.4897 31.5615 13.1656C30.8651 13.8417 29.8488 14.245 28.5706 14.245C27.2924 14.245 26.276 13.8417 25.5797 13.1656C24.8834 12.4897 24.5001 11.5344 24.5001 10.417V0.212159Z" fill="white"></path><path d="M104.344 0.212159H102.302V15.8937H104.344V0.212159Z" fill="white"></path><path fill-rule="evenodd" clip-rule="evenodd" d="M124.847 0.212159H122.793L117.035 15.8937H119.18L120.741 11.499H126.899L128.46 15.8937H130.605L124.847 0.212159ZM121.39 9.66841L123.817 2.83077H123.823L126.25 9.66841H121.39Z" fill="white"></path><path d="M145.221 0.212159H143.278V15.8937H145.321V3.70972H145.348L153.804 15.8937H155.747V0.212159H153.735V12.4265H153.708L145.221 0.212159Z" fill="white"></path><path fill-rule="evenodd" clip-rule="evenodd" d="M176.242 0.212159H174.188L168.43 15.8937H170.575L172.136 11.499H178.294L179.855 15.8937H182L176.242 0.212159ZM172.785 9.66841L175.212 2.83077H175.218L177.645 9.66841H172.785Z" fill="white"></path><path d="M77.5733 0.21395H75.5305V15.8955H77.5733V8.97004H85.9566V15.8955H87.9994V0.21395H85.9566V7.13945H77.5733V0.21395Z" fill="white"></path></svg>