<svg xmlns="http://www.w3.org/2000/svg" width="142" height="20" fill="none"><g clip-path="url(#clip0)" fill-rule="evenodd" clip-rule="evenodd" fill="#BEBEBE"><path d="M50.148 9.173c.516.286 1.167.43 1.93.43.778 0 1.398-.144 1.938-.43.548-.262.803-.595.803-.969 0-.397-.255-.707-.803-.969-.54-.286-1.16-.421-1.938-.397-.763-.032-1.398.111-1.93.397-.54.262-.795.572-.795.97 0 .373.255.714.795.968zM89.024 9.141c.516.263 1.168.398 1.938.398.739 0 1.398-.143 1.93-.398.548-.285.803-.603.803-.969 0-.397-.255-.738-.803-.993-.54-.254-1.191-.397-1.93-.397-.77 0-1.39.143-1.938.397-.54.255-.795.596-.795.993 0 .374.255.691.795.97z"></path><path d="M139.148 16.712h-33.339c-6.99-.89-7.634-3.925-7.825-5.013v-.008c0-.071-.032-.659-.04-.858.008-.031.024-.055.024-.087.612-3.28 3.154-5.108 7.745-5.584h33.348c.786 0 1.414-.636 1.414-1.422 0-.787-.628-1.422-1.414-1.422H105.61c-.048 0-.095.008-.143.008-7.427.762-9.707 4.71-10.295 7.888a1.41 1.41 0 0 0-.087.556l.071 1.255c0 .056 0 .048.008.095a7.567 7.567 0 0 0 1.406 3.313l-6.315-3.511-17.889-9.93a1.422 1.422 0 0 0-1.62-.127l-24.07 14.036V3.28a1.422 1.422 0 0 0-1.81-1.366 1.47 1.47 0 0 0-.573.135l-21.352 10.31c-.104.048-.19.112-.278.175l-2.288 1.136 2.462 1.24c.207.103.43.15.652.15.23.016.469-.023.691-.135l19.653-9.476v12.694c0 .428.19.802.476 1.064.437.516 1.2.667 1.803.31l8.5-4.957c.016 0 .032.008.04.008l4.798-2.828h-.008l12.01-6.998 12.615 6.998H61.904l-4.877 2.844H89.19l9.238 5.147a1.423 1.423 0 0 0 2.105-1.406c1.398.572 3.066.985 4.989 1.223.055.008.111.016.174.016h33.443c.787 0 1.422-.635 1.422-1.43a1.409 1.409 0 0 0-1.414-1.421zM3.082 1.754a1.427 1.427 0 0 0-1.915.627c-.095.191-.143.398-.15.596-.032.127-.064.254-.064.39V18.22a1.422 1.422 0 0 0 2.844 0V5.313l15.196 7.665 3.193-1.573L3.082 1.754z"></path></g><defs><clipPath id="clip0"><path fill="#fff" transform="translate(.564 .92)" d="M0 0h140.602v19.065H0z"></path></clipPath></defs></svg>