<svg xmlns="http://www.w3.org/2000/svg" width="44" height="44" viewBox="0 0 44 44" fill="none"><g clip-path="url(#clip0)" fill="#80AA27"><path d="M43.267 19.8h-.734v-3.667a.733.733 0 0 0-.733-.733h-.807a3.436 3.436 0 0 0-3.593-2.933c-2.378 0-2.806-.587-2.88-.767-.237-.573.574-1.76 1.197-2.38a.733.733 0 0 0-.517-1.253c-2.34.02-4.64.611-6.7 1.72a16.695 16.695 0 0 0-11.633-4.654C7.55 5.133 0 12.685 0 22c0 9.315 7.551 16.867 16.867 16.867h23.466A3.67 3.67 0 0 0 44 35.2V20.533a.733.733 0 0 0-.733-.733zm-26.4-2.933h24.2V19.8H16.133v-2.933h.734zm16.297-4.61c.464 1.129 1.85 1.676 4.236 1.676a1.972 1.972 0 0 1 2.088 1.467H22.19c1.114-.594 2.189-1.313 3.288-2.048 2.424-1.622 4.92-3.291 8.14-3.716a2.99 2.99 0 0 0-.455 2.622zM1.467 22c.009-8.501 6.898-15.39 15.4-15.4a15.233 15.233 0 0 1 10.273 3.942c-.866.513-1.687 1.062-2.477 1.59-2.511 1.681-4.884 3.268-7.796 3.268H15.4a.733.733 0 0 0-.733.733V19.8h-.734a.733.733 0 0 0-.733.733V35.2c.003.663.188 1.313.535 1.878A15.426 15.426 0 0 1 1.467 22zm41.066 13.2a2.2 2.2 0 0 1-2.2 2.2H16.867a2.2 2.2 0 0 1-2.2-2.2V21.267h27.866V35.2z"></path><path d="M28.6 24.2c-4.523 0-8.067 2.255-8.067 5.133 0 2.879 3.544 5.134 8.067 5.134s8.066-2.255 8.066-5.134c0-2.878-3.543-5.133-8.066-5.133zm0 8.8c-3.577 0-6.6-1.68-6.6-3.667 0-1.987 3.023-3.666 6.6-3.666 3.577 0 6.6 1.679 6.6 3.666 0 1.988-3.023 3.667-6.6 3.667z"></path></g><defs><clipPath id="clip0"><path fill="#fff" d="M0 0h44v44H0z"></path></clipPath></defs></svg>