<svg xmlns="http://www.w3.org/2000/svg" width="44" height="44" viewBox="0 0 44 44" fill="none"><path d="M11 44h7.333a2.2 2.2 0 0 0 2.2-2.2V15.4a.733.733 0 0 0-.733-.733v-6.6a.733.733 0 0 0-.733-.734v-2.2a.733.733 0 0 0-.734-.733v-.733a3.667 3.667 0 0 0-7.333 0V4.4a.733.733 0 0 0-.733.733v2.2a.733.733 0 0 0-.734.734v6.6a.733.733 0 0 0-.733.733v26.4A2.2 2.2 0 0 0 11 44zm8.067-2.2a.733.733 0 0 1-.734.733H11a.733.733 0 0 1-.733-.733V16.133h8.8V41.8zm-6.6-38.133a2.2 2.2 0 0 1 4.4 0V4.4h-4.4v-.733zm-.734 2.2H17.6v1.466h-5.867V5.867zM11 8.8h7.333v5.867H11V8.8zM24.2 44h10.267a.733.733 0 0 0 .733-.733V33a5.139 5.139 0 0 0-5.133-5.133H28.6A5.139 5.139 0 0 0 23.467 33v10.267c0 .405.328.733.733.733zm.733-11a3.67 3.67 0 0 1 3.667-3.667h1.467A3.671 3.671 0 0 1 33.733 33v9.533h-8.8V33z" fill="#80AA27"></path></svg>