<svg xmlns="http://www.w3.org/2000/svg" width="26" height="26" viewBox="0 0 26 26" fill="none"><g clip-path="url(#clip0)" fill-rule="evenodd" clip-rule="evenodd" fill="#7848A4"><path d="M1.989 5.082c1.045-.352 2.456-.561 3.992-.561 1.535 0 2.947.209 3.991.561.52.175.977.395 1.314.664.331.264.614.633.614 1.102 0 .044-.003.088-.008.13a.504.504 0 0 1 .007.08V9.61c0 .043-.003.086-.007.127a.506.506 0 0 1 .007.084v2.552c0 .043-.003.085-.007.127a.504.504 0 0 1 .007.083v2.552c0 .042-.003.084-.007.124a.504.504 0 0 1 .007.082v2.552l-.002.066.002.044v2.552c0 .469-.283.838-.614 1.102-.337.269-.794.488-1.314.664-1.044.352-2.456.561-3.991.561-1.536 0-2.947-.209-3.992-.561-.52-.176-.976-.395-1.313-.664-.332-.264-.614-.633-.614-1.102v-2.552l.001-.044a1.155 1.155 0 0 1-.001-.066V15.34c0-.028.002-.055.006-.082a1.15 1.15 0 0 1-.006-.124v-2.551c0-.03.002-.057.007-.084a1.147 1.147 0 0 1-.007-.127V9.82c0-.028.002-.056.007-.084A1.149 1.149 0 0 1 .06 9.61V7.058c0-.03.002-.058.007-.087a1.149 1.149 0 0 1-.006-.123c0-.469.282-.838.614-1.102.337-.269.793-.489 1.313-.664zm-.69 1.446c-.217.172-.237.284-.237.32 0 .036.02.148.237.32.212.17.549.343 1.01.498.916.31 2.214.51 3.672.51 1.457 0 2.755-.2 3.672-.51.46-.155.797-.329 1.01-.498.216-.172.237-.284.237-.32 0-.036-.021-.148-.238-.32-.212-.169-.549-.343-1.01-.498-.916-.31-2.214-.51-3.671-.51-1.458 0-2.756.2-3.673.51-.46.155-.797.33-1.009.498zM9.971 16.9a5.28 5.28 0 0 0 .928-.405v1.397c0 .035-.021.147-.238.32-.211.169-.548.342-1.01.498-.916.309-2.214.509-3.671.509-1.458 0-2.756-.2-3.672-.51-.461-.155-.798-.328-1.01-.497-.217-.173-.237-.285-.237-.32v-1.397c.27.155.585.29.927.405 1.045.352 2.456.561 3.992.561 1.535 0 2.947-.209 3.991-.561zm0 2.758a5.28 5.28 0 0 0 .928-.405v1.3c0 .037-.021.149-.238.321-.211.169-.548.343-1.01.498-.916.31-2.214.51-3.671.51-1.458 0-2.756-.2-3.672-.51-.461-.155-.798-.33-1.01-.498-.217-.172-.237-.284-.237-.32v-1.301c.27.155.585.29.927.404 1.045.353 2.456.562 3.992.562 1.535 0 2.947-.21 3.991-.561zm.001-11.045a5.28 5.28 0 0 0 .927-.404v1.4c0 .036-.021.148-.238.32-.211.169-.548.343-1.01.498-.916.31-2.214.51-3.671.51-1.458 0-2.756-.2-3.672-.51-.461-.155-.798-.33-1.01-.498-.217-.172-.237-.284-.237-.32V8.209c.27.155.586.29.928.405 1.045.352 2.456.561 3.992.561 1.535 0 2.947-.209 3.991-.561zm0 2.762a5.28 5.28 0 0 0 .927-.405v1.402c0 .036-.021.147-.238.32-.211.169-.548.343-1.01.498-.916.31-2.214.509-3.671.509-1.458 0-2.756-.2-3.672-.509-.461-.155-.798-.33-1.01-.498-.217-.173-.237-.284-.237-.32V10.97c.27.155.585.29.927.405 1.045.352 2.456.561 3.992.561 1.535 0 2.947-.209 3.991-.561zm.927 3.759v-1.401a5.28 5.28 0 0 1-.928.405c-1.044.352-2.456.561-3.991.561-1.536 0-2.947-.21-3.992-.561a5.282 5.282 0 0 1-.927-.405v1.4c0 .037.02.149.237.321.212.169.549.343 1.01.498.916.31 2.214.51 3.672.51 1.457 0 2.755-.2 3.672-.51.46-.155.798-.33 1.01-.498.216-.172.237-.284.237-.32zM19.353 12.707c-1.536 0-2.947.21-3.992.562-.52.175-.976.395-1.313.664-.332.264-.614.633-.614 1.102 0 .044.002.088.007.13a.507.507 0 0 0-.006.08v2.552c0 .042.002.084.006.124a.504.504 0 0 0-.006.082v2.552c0 .468.282.837.614 1.102.337.269.793.488 1.313.664 1.045.352 2.456.561 3.992.561 1.535 0 2.947-.21 3.991-.561.52-.176.977-.395 1.314-.664.331-.265.614-.634.614-1.102v-2.552a.504.504 0 0 0-.007-.082c.004-.04.007-.082.007-.124v-2.551a.502.502 0 0 0-.008-.088c.004-.04.007-.081.007-.123 0-.469-.283-.838-.614-1.102-.337-.269-.794-.489-1.314-.664-1.044-.352-2.456-.562-3.991-.562zm-4.92 2.328c0-.036.021-.148.238-.32.212-.17.549-.343 1.01-.498.916-.31 2.214-.51 3.672-.51 1.457 0 2.755.2 3.672.51.46.155.798.329 1.01.497.216.173.237.285.237.32 0 .037-.021.148-.238.321-.211.169-.548.343-1.01.498-.916.31-2.214.51-3.671.51-1.458 0-2.756-.2-3.672-.51-.461-.155-.798-.33-1.01-.498-.216-.173-.237-.284-.237-.32zm9.84 4.123c-.271.155-.586.29-.928.405-1.044.352-2.456.561-3.991.561-1.536 0-2.947-.209-3.992-.561a5.283 5.283 0 0 1-.927-.405v1.397c0 .036.02.147.237.32.212.169.549.343 1.01.498.916.31 2.214.51 3.672.51 1.457 0 2.755-.2 3.672-.51.46-.155.797-.33 1.01-.498.216-.173.237-.284.237-.32v-1.397zm-9.838-1.36v-1.402c.27.155.585.29.926.405 1.045.352 2.456.561 3.992.561 1.535 0 2.947-.21 3.991-.561.342-.116.657-.25.929-.406v1.402c0 .036-.021.148-.238.32-.212.17-.548.343-1.01.498-.916.31-2.214.51-3.671.51-1.457 0-2.756-.2-3.672-.51-.461-.155-.798-.329-1.01-.498-.216-.172-.237-.284-.237-.32z"/></g><defs><clipPath id="clip1"><path fill="#fff" transform="translate(0 4)" d="M0 0h25.333v19H0z"/></clipPath></defs></svg>