<svg xmlns="http://www.w3.org/2000/svg" width="44" height="44" viewBox="0 0 44 44" fill="none"><g clip-path="url(#clip0)" fill="#80AA27"><path d="M18.325 8.067h-2.933a.733.733 0 0 0-.733.733v2.63l-2.719 2.718v.005c-.005.005-.007.013-.012.019a.7.7 0 0 0-.153.27.705.705 0 0 0-.034.197c0 .017-.01.03-.008.047l.726 27.114a2.2 2.2 0 0 0 2.2 2.2h4.4a2.2 2.2 0 0 0 2.2-2.18l.733-27.134c0-.016-.008-.03-.008-.046a.72.72 0 0 0-.06-.27.713.713 0 0 0-.127-.197l-.013-.02v-.004l-2.725-2.72V8.8a.733.733 0 0 0-.734-.733zm-2.2 1.466h1.467V11h-1.467V9.533zM19.792 41.8a.733.733 0 0 1-.733.733h-4.4a.738.738 0 0 1-.734-.753l-.713-26.38h7.293l-.713 26.4zm-5.563-27.867l1.467-1.466h2.326l1.466 1.466h-5.26zM31.526 20.533h-2.2v-11h.733a.733.733 0 0 0 0-1.466h-.733v-.734h.733a.733.733 0 0 0 0-1.466h-.733v-.734h1.466a.733.733 0 0 0 0-1.466h-1.466v-.734h1.466a.733.733 0 0 0 0-1.466h-1.466V.733a.733.733 0 0 0-1.467 0v.734h-1.467a.733.733 0 0 0 0 1.466h1.467v.734h-1.467a.733.733 0 0 0 0 1.466h1.467v.734h-.733a.733.733 0 0 0 0 1.466h.733v.734h-.733a.733.733 0 0 0 0 1.466h.733v11h-2.2a.733.733 0 0 0-.733.734V41.8a2.2 2.2 0 0 0 2.2 2.2h2.933a2.2 2.2 0 0 0 2.2-2.2V21.267a.733.733 0 0 0-.733-.734zM30.792 41.8a.733.733 0 0 1-.733.733h-2.933a.733.733 0 0 1-.734-.733V22h4.4v19.8z"></path></g><defs><clipPath id="clip0"><path fill="#fff" d="M0 0h44v44H0z"></path></clipPath></defs></svg>