<svg xmlns="http://www.w3.org/2000/svg" width="26" height="26" viewBox="0 0 26 26" fill="none"><path fill-rule="evenodd" clip-rule="evenodd" d="M1.5 13C1.5 6.649 6.649 1.5 13 1.5v-1C6.096.5.5 6.096.5 13S6.096 25.5 13 25.5 25.5 19.904 25.5 13c0-3.282-1.266-6.27-3.335-8.5h2.153a.5.5 0 0 0 0-1h-4v4a.5.5 0 1 0 1 0V5.06A11.46 11.46 0 0 1 24.5 13c0 6.351-5.149 11.5-11.5 11.5S1.5 19.351 1.5 13zm19.818-8.13l.38-.37h-.38v.37z" fill="#7848A4"/><path fill-rule="evenodd" clip-rule="evenodd" d="M9.658 7.945c.879-.296 2.06-.47 3.342-.47s2.463.174 3.342.47c.436.148.826.334 1.116.566.285.227.542.555.542.981 0 .035-.002.07-.005.103a.499.499 0 0 1 .005.072v2.119c0 .034-.002.068-.005.101a.508.508 0 0 1 .005.07v2.12l-.001.053.001.038v2.119c0 .426-.257.754-.542.982-.29.231-.68.417-1.116.565-.879.296-2.06.47-3.342.47s-2.463-.174-3.342-.47c-.436-.148-.826-.334-1.116-.566-.285-.227-.542-.555-.542-.981v-2.119l.001-.037L8 14.075v-2.119c0-.023.002-.047.005-.07A1.043 1.043 0 0 1 8 11.786V9.667c0-.024.002-.048.005-.072A1.043 1.043 0 0 1 8 9.492c0-.426.257-.754.542-.981.29-.232.68-.418 1.116-.566zM9 9.492s0 .014.019.047a.625.625 0 0 0 .146.153c.165.131.435.272.813.4.75.252 1.819.417 3.022.417 1.203 0 2.272-.165 3.022-.418.378-.127.648-.268.813-.4a.626.626 0 0 0 .146-.152c.02-.033.019-.047.019-.047s.001-.014-.019-.046a.626.626 0 0 0-.146-.154c-.165-.131-.435-.272-.813-.399-.75-.253-1.819-.418-3.022-.418-1.203 0-2.272.165-3.022.418-.378.127-.648.268-.813.4a.625.625 0 0 0-.146.153c-.02.032-.019.046-.019.046zm0 3.567v1.017s0 .014.019.047a.624.624 0 0 0 .146.153c.165.132.435.272.813.4.75.252 1.819.418 3.022.418 1.203 0 2.272-.166 3.022-.419.378-.127.648-.268.813-.4a.625.625 0 0 0 .146-.152c.02-.033.019-.047.019-.047V13.06c-.2.103-.422.194-.658.274-.879.296-2.06.47-3.342.47s-2.463-.174-3.342-.47A4.735 4.735 0 0 1 9 13.059zm0 2.29v.938s0 .014.019.046a.624.624 0 0 0 .146.154c.165.131.435.272.813.4.75.252 1.819.417 3.022.417 1.203 0 2.272-.165 3.022-.418.378-.127.648-.268.813-.4a.625.625 0 0 0 .146-.153c.02-.032.019-.046.019-.046v-.938c-.2.103-.422.194-.658.274-.879.296-2.06.47-3.342.47s-2.463-.174-3.342-.47A4.748 4.748 0 0 1 9 15.349zm0-4.584v1.02c0 .001 0 .015.019.047a.626.626 0 0 0 .146.154c.165.131.435.272.813.399.75.253 1.819.418 3.022.418 1.203 0 2.272-.165 3.022-.418.378-.127.648-.268.813-.4a.627.627 0 0 0 .146-.153c.02-.032.019-.046.019-.046v-1.021c-.2.103-.422.194-.658.274-.879.296-2.06.47-3.342.47s-2.463-.174-3.342-.47A4.735 4.735 0 0 1 9 10.765z" fill="#7848A4"/></svg>