<svg xmlns="http://www.w3.org/2000/svg" width="26" height="26" viewBox="0 0 26 26" fill="none"><path fill-rule="evenodd" clip-rule="evenodd" d="M13 .423L23.892 6.71V19.29L13 25.577 2.107 19.29V6.71L13 .423zM3.107 18.71V8.063l4.02 2.321v10.649l-4.02-2.322zm5.02 2.899l4.373 2.524V13.485l-4.372-2.524V21.61zm5.373 2.524l9.392-5.423V8.063L13.5 13.485v10.649zM13 1.577l4.197 2.424-2.036 1.175c.18-.367.298-.737.341-1.076.056-.434.007-1.02-.468-1.321-.476-.302-1.027-.096-1.395.139-.406.259-.804.678-1.126 1.184-.296.466-.496.961-.574 1.41a4.173 4.173 0 0 0-1.367-.42c-.592-.082-1.166-.052-1.623.083-.409.12-.934.396-1.01.955-.078.558.353.966.713 1.193.404.253.949.438 1.54.52.1.013.198.024.296.031L7.634 9.522 3.437 7.098 13 1.578zm5.197 3.001l-9.563 5.521L13 12.619l9.562-5.52-4.365-2.521zm-9.252 1.69c.023.037.083.11.24.208.257.162.66.31 1.144.376.485.067.912.034 1.204-.052.178-.052.255-.106.287-.135-.023-.036-.083-.109-.24-.207-.258-.162-.66-.31-1.145-.376-.484-.067-.911-.034-1.203.052-.178.052-.255.106-.287.135zm5.565-2.296c.028-.214-.001-.308-.016-.342-.037 0-.134.014-.317.13-.256.165-.558.466-.82.878-.26.41-.404.812-.443 1.115-.028.214.001.308.017.341.036 0 .134-.014.316-.13.257-.164.559-.466.82-.877.26-.411.405-.813.443-1.115z" fill="#7848A4"/></svg>