<svg xmlns="http://www.w3.org/2000/svg" width="44" height="44" viewBox="0 0 44 44" fill="none"><path d="M26.4 0h-8.8a.733.733 0 0 0-.733.733V22h-4.4a2.2 2.2 0 0 0-2.2 2.2v17.6a2.2 2.2 0 0 0 2.2 2.2h19.066a2.2 2.2 0 0 0 2.2-2.2V24.2a2.2 2.2 0 0 0-2.2-2.2h-4.4V.733A.733.733 0 0 0 26.4 0zm-8.067 1.467h7.334V22h-7.334V1.467zM32.267 24.2v17.6a.733.733 0 0 1-.734.733H12.467a.733.733 0 0 1-.734-.733V24.2c0-.405.329-.733.734-.733h19.066c.405 0 .734.328.734.733z" fill="#80AA27"></path><path d="M13.39 25.175a.735.735 0 0 0-.186.565l1.335 13.347a2.193 2.193 0 0 0 2.189 1.98h10.545a2.193 2.193 0 0 0 2.189-1.98L30.8 25.74a.735.735 0 0 0-.733-.807H13.934a.733.733 0 0 0-.544.242zm7.877 1.225v5.133a.733.733 0 0 0-.723.613l-.733 4.4a.733.733 0 0 0 .723.854h2.933a.733.733 0 0 0 .723-.854l-.734-4.4a.733.733 0 0 0-.723-.613V26.4h6.527l-1.254 12.54a.733.733 0 0 1-.733.66H16.728a.733.733 0 0 1-.73-.66L14.744 26.4h6.523zm.621 6.6h.224l.489 2.933H21.4L21.888 33z" fill="#80AA27"></path></svg>