<svg xmlns="http://www.w3.org/2000/svg" width="44" height="44" viewBox="0 0 44 44" fill="none"><path d="M32.621 4.552c.419 0 .759-.34.759-.759V.76A.759.759 0 0 0 32.62 0H17.45a2.276 2.276 0 0 0 0 4.552h2.275v1.517h-.758a.759.759 0 0 0-.759.759v4.545c-4.412 1.776-7.586 6.542-7.586 12.144v18.207A2.276 2.276 0 0 0 12.897 44h18.207a2.276 2.276 0 0 0 2.276-2.276V23.517c0-5.602-3.174-10.368-7.587-12.144V6.828a.759.759 0 0 0-.758-.759h-.759V4.552h8.345zm-15.93-2.276c0-.42.339-.759.758-.759h14.413v1.517H17.45a.759.759 0 0 1-.759-.758zm15.172 21.241v18.207c0 .42-.34.759-.76.759H12.898a.759.759 0 0 1-.759-.759V23.517c0-6.274 4.425-11.38 9.862-11.38 5.438 0 9.863 5.106 9.863 11.38zM19.724 10.621V7.586h4.552v3.035h-4.552zm3.035-4.552h-1.517V4.552h1.517v1.517z" fill="#80AA27"></path><path d="M14.414 23.517V38.69c0 .419.34.758.759.758h13.655c.419 0 .759-.34.759-.758V23.517a.759.759 0 0 0-.76-.758H15.174a.759.759 0 0 0-.759.758zm1.517.759H28.07V37.93H15.931V24.276z" fill="#80AA27"></path></svg>