<svg xmlns="http://www.w3.org/2000/svg" width="26" height="26" viewBox="0 0 26 26" fill="none"><path d="M10 4.898H4v-1h6v1zM4 7.298h3.608v-1H4v1z" fill="#7848A4"/><path fill-rule="evenodd" clip-rule="evenodd" d="M.5.5h13v10.197H4.494l-2.41 1.735A1 1 0 0 1 .5 11.62V.5zm12 9.197V1.5h-11v10.12l2.671-1.923H12.5z" fill="#7848A4"/><path d="M22 17.278h-6v-1h6v1zM18.392 19.702H22v-1h-3.61v1z" fill="#7848A4"/><path fill-rule="evenodd" clip-rule="evenodd" d="M25.5 12.903h-13V23.1h9.006l2.41 1.735a1 1 0 0 0 1.584-.811v-11.12zm-12 9.197v-8.197h11v10.12L21.829 22.1H13.5z" fill="#7848A4"/></svg>