<svg xmlns="http://www.w3.org/2000/svg" width="44" height="44" viewBox="0 0 44 44" fill="none"><path d="M33 41.8V13.933a.352.352 0 0 0-.009-.042.699.699 0 0 0-.173-.43.644.644 0 0 0-.057-.064c-.01-.009-.015-.02-.025-.028l-4.522-3.77 3.932.656a.733.733 0 0 0 .78-1.05L31.62 6.6l1.307-2.606a.732.732 0 0 0-.777-1.05l-4.283.712V2.2a2.2 2.2 0 0 0-2.2-2.2h-7.333a2.2 2.2 0 0 0-2.2 2.2v1.456l-4.28-.712a.732.732 0 0 0-.777 1.05L12.38 6.6l-1.303 2.606a.734.734 0 0 0 .778 1.05l3.932-.655-4.523 3.77c-.01.007-.015.019-.024.028a.696.696 0 0 0-.057.064.733.733 0 0 0-.133.225.688.688 0 0 0-.04.205.368.368 0 0 0-.01.04V41.8a2.2 2.2 0 0 0 2.2 2.2h17.6a2.2 2.2 0 0 0 2.2-2.2zM30.14 6.928l.824 1.645L24.2 7.445v-1.69l6.768-1.128-.824 1.645a.732.732 0 0 0 0 .656h-.004zM17.6 2.2c0-.405.329-.733.734-.733h7.333c.405 0 .733.328.733.733v1.701l-2.994.499h-2.811L17.6 3.901V2.2zm3.667 3.667h1.467v1.466h-1.467V5.867zm-7.407.405l-.827-1.645L19.8 5.755v1.69l-6.767 1.128.827-1.645a.732.732 0 0 0 0-.656zm4.794 2.852l1.94-.324h2.812l1.944.324 4.891 4.076H13.76l4.895-4.076zM31.534 41.8a.733.733 0 0 1-.734.733H13.2a.733.733 0 0 1-.733-.733V14.667h19.067V41.8z" fill="#80AA27"></path><path d="M16.134 30.067h11.733a.733.733 0 0 0 .733-.734v-8.066a.733.733 0 0 0-.733-.734H16.134a.733.733 0 0 0-.734.734v8.066c0 .405.329.734.734.734zM16.867 22h10.267v6.6H16.867V22z" fill="#80AA27"></path></svg>